<svg width="25" height="24" viewBox="0 0 25 24" fill="none" xmlns="http://www.w3.org/2000/svg">
<rect x="2" y="1.5" width="21" height="21" rx="2" fill="#333333"/>
<path d="M18.5665 17.1704L16.6614 14.2161C15.5418 12.4939 15.2935 12.1935 14.3428 11.9351C16.2264 11.5048 17.2641 10.386 17.2641 8.82797C17.2653 6.90974 15.6124 5.7196 13.0884 5.7196H11.1997V5.72979C11.6284 5.83416 11.9814 6.04037 12.3647 6.30131C12.4491 6.27967 12.5702 6.25803 12.8047 6.25803C14.5937 6.25803 15.5595 7.3438 15.5595 8.83306C15.5595 10.5336 14.5534 11.6665 13.2485 11.6665H12.6887V11.6792C13.9457 12.2024 14.276 12.9457 14.6921 13.6904L16.6665 17.3117C17.0396 17.9392 17.4242 18.2791 18.0811 18.2791H19.8588V18.19C19.2195 17.9392 18.9207 17.7088 18.5652 17.1704H18.5665Z" fill="white"/>
<path d="M5.14062 18.2804V18.1913L5.51382 18.0296C5.85171 17.8501 5.93996 17.6885 5.93996 17.3842V6.61698C5.93996 6.31149 5.85171 6.14984 5.51382 5.97036L5.14062 5.80871V5.7196H9.15748C11.592 5.7196 13.192 6.92247 13.192 8.69814C13.192 10.0232 12.1254 10.9588 10.5431 11.3534C12.8364 11.6767 14.3469 12.8235 14.3469 14.7621C14.3469 16.7007 12.96 18.2791 9.24573 18.2791H5.14062V18.2804ZM7.64706 11.2643H8.96205C10.6149 11.2643 11.4861 10.1161 11.4861 8.64468C11.4861 7.17323 10.562 6.25803 8.87254 6.25803C8.35688 6.25803 7.85887 6.38405 7.6458 6.50879V11.2643H7.64706ZM12.5351 14.7278C12.5351 13.3276 11.6992 11.8027 9.22934 11.8027H7.64706V17.4733C8.14507 17.635 8.64182 17.7419 9.40711 17.7419C11.8064 17.7419 12.5351 16.0375 12.5351 14.7278Z" fill="white"/>
</svg>
