<svg width="32" height="32" viewBox="0 0 32 32" fill="none" xmlns="http://www.w3.org/2000/svg">
<rect x="2" y="2" width="28" height="28" rx="2.67" fill="#5E2D91"/>
<path d="M23.6175 8.38816C19.4917 6.26118 15.4164 6.03477 12.8828 6.7959C8.1984 8.20048 6.74466 14.1539 11.0865 17.0733C11.3487 17.2506 11.1833 17.6215 10.8541 18.2143C10.4475 18.9531 9.69235 20.4038 8.35926 21.4509C7.55792 22.0825 7.03511 22.3431 7.69644 23.1236C7.69644 23.1236 9.16358 24.768 10.2494 25.2446C11.5557 25.8181 11.8834 25.7213 12.856 24.8112C13.4682 24.2377 14.6806 22.6738 16.1433 20.1789C16.9029 18.8831 17.9173 18.8592 17.7802 20.9922C17.7802 20.9922 17.5806 23.0447 17.524 23.4692C17.3617 24.692 17.4883 25.1151 18.5846 25.1255C18.5846 25.1255 20.9379 24.9959 21.7542 24.8812C22.9041 24.7248 22.8415 24.5386 23.1424 23.6315C24.7495 18.7922 24.8851 10.4868 24.8851 10.4868C24.9551 9.37122 24.6036 8.89607 23.6175 8.38816ZM20.6058 12.8655C20.6058 12.8655 19.1446 13.868 19.1089 13.8948C18.9837 13.9901 18.8139 14.1048 18.7901 14.568C18.7812 14.7617 18.7246 16.126 18.7216 16.2988C18.7186 16.4865 18.6367 17.0003 18.0424 16.479C18.0424 16.479 17.0474 15.6077 16.9 15.4781C16.8657 15.4483 16.5246 15.061 15.9929 15.2904L14.4349 15.913C14.4349 15.913 13.498 16.2958 13.845 15.4543C14.1831 14.6336 14.411 13.9544 14.487 13.7354C14.5644 13.506 14.5376 13.1828 14.347 12.9579C14.2606 12.8551 13.5114 11.8661 13.3416 11.6218C13.3416 11.6218 12.7264 10.892 13.7512 10.9411C13.7512 10.9411 15.4998 10.9813 15.5281 10.9828C15.5579 10.9858 15.8856 11.0082 16.118 10.6403C16.4054 10.1875 17.2515 9.12843 17.0757 9.35334C17.2232 9.16567 17.5658 8.70393 17.7922 9.47101C17.7922 9.47101 18.1139 10.4809 18.2673 10.9054C18.3716 11.1943 18.4371 11.3865 18.9569 11.5548L20.5641 12.1357C20.5641 12.1357 21.3148 12.3681 20.6058 12.8655Z" fill="white"/>
</svg>
