<svg width="25" height="24" viewBox="0 0 25 24" fill="none" xmlns="http://www.w3.org/2000/svg">
<path fill-rule="evenodd" clip-rule="evenodd" d="M2 21C2 21.8284 2.67157 22.5 3.5 22.5H21.5C22.3284 22.5 23 21.8284 23 21V3C23 2.17157 22.3284 1.5 21.5 1.5H3.5C2.67157 1.5 2 2.17157 2 3V21Z" fill="#040304"/>
<path fill-rule="evenodd" clip-rule="evenodd" d="M8.05727 17.4863V12.2277H8.7267C9.41739 12.2277 10.2842 12.1572 10.7914 11.8136C11.3412 11.4525 11.4046 10.9434 11.4046 10.6476V7.92409C11.4046 7.34239 11.2567 6.86684 10.6999 6.51462C10.2415 6.225 9.47283 6.23713 9.15191 6.24219C9.1175 6.24274 9.08824 6.2432 9.06506 6.2432H5.56982V6.50769H6.04899V17.4863H5.56982V17.7435H8.54353V17.4863H8.05727ZM9.41051 7.22167C9.41049 7.2325 9.41047 7.24345 9.41047 7.25451V11.1763C9.41047 11.1973 9.41128 11.2214 9.41217 11.2475C9.41712 11.3938 9.42435 11.6075 9.30469 11.7538C9.18504 11.8947 9.00187 11.9759 8.77633 11.9759H8.0575V6.50775H8.65642C8.93824 6.50775 9.14981 6.53752 9.29072 6.70667C9.41113 6.85872 9.41085 7.02054 9.41051 7.22167ZM19.4157 16.07V13.484C19.4157 12.9606 19.2752 12.6769 18.958 12.4059C18.6086 12.1036 18.1613 12.0086 17.904 11.9539C17.7772 11.927 17.6965 11.9098 17.6965 11.8825C17.6921 11.8672 17.7296 11.8546 17.7996 11.8313C17.9535 11.7801 18.2643 11.6766 18.6302 11.3751C19.0219 11.0372 19.0146 10.4967 19.0143 10.4707L19.0143 10.4698V7.71257C19.0143 7.71226 19.0143 7.71141 19.0144 7.71007C19.017 7.6665 19.0515 7.09392 18.4363 6.62393C18.0486 6.33854 17.6611 6.24326 17.1466 6.24326H13.0175V6.50775H13.4968V17.4863H13.0175V17.7436H17.3513C17.7316 17.7436 18.641 17.6556 19.0705 17.1819C19.3806 16.833 19.4157 16.5086 19.4157 16.07ZM16.5617 17.4863H15.498V12.094H16.7379C16.9637 12.094 17.1679 12.1343 17.2876 12.2717C17.4006 12.4058 17.4075 12.5469 17.4075 12.7193V16.7784C17.4075 17.0107 17.337 17.1819 17.1465 17.342C16.9637 17.4863 16.6042 17.4863 16.5617 17.4863ZM15.498 11.7875V6.50772H16.3506C16.3644 6.50772 16.8264 6.50772 16.9212 6.63608C17.0242 6.75643 17.0156 7.08176 17.0132 7.1704C17.013 7.17904 17.0128 7.18544 17.0128 7.18917V11.2324C17.0128 11.2497 17.0138 11.2692 17.0148 11.2902C17.02 11.3976 17.0272 11.5455 16.9212 11.6518C16.8 11.7898 16.5951 11.788 16.5463 11.7875C16.5441 11.7875 16.5422 11.7875 16.5406 11.7875H15.498Z" fill="white"/>
</svg>
