<svg width="25" height="24" viewBox="0 0 25 24" fill="none" xmlns="http://www.w3.org/2000/svg">
<path fill-rule="evenodd" clip-rule="evenodd" d="M2 21.1016C2 21.8739 2.6261 22.5 3.39844 22.5H21.6016C22.3739 22.5 23 21.8739 23 21.1016V2.89844C23 2.1261 22.3739 1.5 21.6016 1.5H3.39844C2.6261 1.5 2 2.1261 2 2.89844V21.1016Z" fill="#409BCF"/>
<path fill-rule="evenodd" clip-rule="evenodd" d="M8.02733 9.3673C8.21108 9.48333 8.22154 9.52235 8.22163 9.88691C8.22163 9.88959 8.21945 9.89189 8.21677 9.89189V9.89189C8.21409 9.89189 8.21192 9.89406 8.21192 9.89674V12.9326C8.21192 13.1725 8.21192 13.2996 8.20819 13.3848C8.20587 13.4379 8.21697 13.5058 8.27019 13.5058V13.5058C8.28136 13.5058 8.28611 13.5058 8.28997 13.5039C8.29283 13.5026 8.2952 13.5002 8.29933 13.4961C8.33823 13.4474 8.38679 13.3989 8.43536 13.3989C8.46385 13.3989 8.50236 13.4123 8.5568 13.4312C8.59516 13.4445 8.64142 13.4605 8.69765 13.4766C8.82396 13.5155 8.99879 13.5543 9.23194 13.5543C10.0868 13.5543 10.6892 12.9617 10.6892 12.1263C10.6892 11.4365 10.2035 10.8925 9.48452 10.8925C9.25687 10.8925 9.06048 10.9498 8.90678 11.0186C8.80526 11.0641 8.68793 11.0718 8.68793 10.9605V10.9605V9.76557C8.68793 9.55633 8.69865 9.34709 8.70814 9.16172C8.71082 9.10955 8.71339 9.05927 8.7156 9.01141C8.7166 8.98979 8.71615 8.96448 8.69914 8.9511V8.9511C8.67676 8.9335 8.64568 8.94685 8.6201 8.95934C8.46412 9.03547 8.28959 9.09308 8.14941 9.13936C8.13214 9.14506 8.11539 9.15059 8.09926 9.15596C8.01209 9.18498 7.89267 9.2774 7.96905 9.32845V9.32845L8.02733 9.3673ZM8.84351 13.1463C8.7374 13.0113 8.68877 12.8188 8.68806 12.5975C8.68806 12.5948 8.68588 12.5926 8.6832 12.5926V12.5926C8.68052 12.5926 8.67834 12.5904 8.67834 12.5877V11.6016C8.67834 11.3588 8.68806 11.2908 8.75604 11.2422C8.84351 11.1937 8.9892 11.145 9.1835 11.145C9.81497 11.145 10.1452 11.6503 10.1452 12.3011C10.1452 12.8452 9.91209 13.3503 9.31953 13.3503C9.12522 13.3503 8.95035 13.2823 8.84351 13.1463ZM5.01617 11.2519C5.19105 11.3588 5.19105 11.3977 5.19105 11.6405V14.3315C5.19105 14.7881 5.18134 14.8561 4.94818 14.8852L4.89742 14.8925C4.84114 14.9005 4.77808 14.9247 4.78033 14.9815V14.9815C4.7828 15.0437 4.85404 15.0582 4.91618 15.055C5.06613 15.0473 5.23042 15.0407 5.41449 15.0407C5.5766 15.0407 5.71825 15.0458 5.89881 15.0523C5.93962 15.0538 5.98243 15.0553 6.02791 15.0569C6.09075 15.0591 6.15863 15.0405 6.16198 14.9777V14.9777C6.16482 14.9245 6.10601 14.9014 6.05309 14.895L5.89051 14.8755C5.65735 14.8464 5.64764 14.7881 5.64764 14.3412V13.6806V13.6806C5.64764 13.5387 5.80748 13.5243 5.94925 13.5314C5.99658 13.5337 6.04422 13.5349 6.08481 13.5349C6.98828 13.5349 7.62941 12.9034 7.62941 12.0291C7.62941 11.3879 7.22143 10.8731 6.58025 10.8731C6.22631 10.8731 5.87971 11.0704 5.74329 11.1481V11.1481C5.71252 11.1656 5.66816 11.1836 5.64899 11.1538C5.64038 11.1404 5.63793 11.1209 5.63793 11.0965C5.63793 11.045 5.64468 10.9934 5.65221 10.9359C5.65572 10.9091 5.6594 10.881 5.66264 10.851C5.66589 10.821 5.66287 10.7844 5.63773 10.7676V10.7676C5.60941 10.7487 5.5746 10.7671 5.54625 10.7859C5.37717 10.898 5.11921 11.0341 4.96761 11.0965C4.94902 11.1058 4.93932 11.1262 4.93746 11.1482C4.93353 11.1946 4.97742 11.2261 5.01617 11.2519V11.2519ZM5.85183 13.1948C5.7158 13.0977 5.65752 13.02 5.65752 12.816V11.7182C5.65752 11.5142 5.67695 11.417 5.73522 11.3491C5.80326 11.2713 5.99751 11.1742 6.26957 11.1742C6.84271 11.1742 7.12443 11.689 7.12443 12.1942C7.12443 12.8548 6.82329 13.3308 6.30842 13.3308C6.17239 13.3308 5.97809 13.292 5.85183 13.1948Z" fill="#00649C"/>
<path fill-rule="evenodd" clip-rule="evenodd" d="M20.1502 11.5578C20.2149 11.556 20.2367 11.4802 20.2319 11.4157C20.2208 11.2669 20.1862 11.1107 20.1386 10.9997C20.1386 10.9996 20.1386 10.9996 20.1385 10.9996V10.9996C20.1385 10.9996 20.1385 10.9996 20.1385 10.9996C20.0802 10.951 19.847 10.8831 19.5654 10.8831C19.0893 10.8831 18.7104 11.1454 18.7104 11.602C18.7104 11.9517 18.963 12.1751 19.3322 12.3791C19.5654 12.5151 19.8179 12.6705 19.8179 12.962C19.8179 13.234 19.6139 13.37 19.3905 13.37C19.0504 13.37 18.8494 13.1004 18.7383 12.7752C18.7257 12.7383 18.7098 12.6994 18.671 12.6951V12.6951C18.6039 12.6877 18.572 12.7649 18.5732 12.8324C18.5746 12.9113 18.5808 12.996 18.5902 13.0757C18.6134 13.2719 18.7305 13.4476 18.9187 13.5076C19.0356 13.5449 19.1714 13.5643 19.3322 13.5643C19.7985 13.5643 20.2454 13.3214 20.2454 12.8454C20.2454 12.3985 19.9345 12.1848 19.6042 11.9905C19.5948 11.9852 19.5852 11.9798 19.5757 11.9744C19.359 11.8525 19.1185 11.7171 19.1185 11.4659C19.1185 11.2328 19.2836 11.0773 19.5265 11.0773C19.7572 11.0773 19.9392 11.2232 20.0504 11.463C20.0718 11.509 20.0996 11.5593 20.1502 11.5578V11.5578ZM17.9916 13.2632C17.8173 13.2632 17.8073 13.0315 17.8072 12.5394C17.8072 12.5368 17.8094 12.5346 17.812 12.5346V12.5346C17.8147 12.5346 17.8168 12.5324 17.8168 12.5298V9.77558C17.8168 9.51657 17.825 9.22468 17.8339 9.03586C17.8354 9.00515 17.829 8.96825 17.8009 8.95581V8.95581C17.7799 8.94651 17.7577 8.95543 17.7371 8.96569C17.5719 9.0481 17.3718 9.11978 17.2198 9.16995C17.1327 9.19867 17.012 9.28757 17.0882 9.33841V9.33841L17.1465 9.37726C17.3311 9.49386 17.3408 9.53271 17.3408 9.90184V10.8539V10.8539C17.3408 10.9235 17.2689 10.9272 17.2008 10.9126C17.1219 10.8956 17.015 10.883 16.8745 10.883C16.0196 10.883 15.3493 11.4562 15.3493 12.3403C15.3493 13.0009 15.8156 13.5546 16.515 13.5546C16.8133 13.5546 17.0258 13.4593 17.3036 13.2687C17.3088 13.2651 17.3151 13.2632 17.3215 13.2632V13.2632C17.3333 13.2632 17.3439 13.2701 17.3456 13.2818C17.3505 13.3148 17.3505 13.38 17.3505 13.4575V13.5643V13.5643C17.3505 13.6258 17.4477 13.601 17.5062 13.5822C17.6796 13.5263 17.9496 13.4611 18.165 13.4233C18.2239 13.413 18.2871 13.3886 18.2962 13.3295V13.3295C18.3104 13.2385 18.2181 13.2206 18.1286 13.2421C18.0767 13.2546 18.0284 13.2632 17.9916 13.2632ZM17.2728 11.3494C17.3115 11.4076 17.3408 11.4659 17.3408 11.5922V12.8453C17.3408 12.9425 17.3309 13.0396 17.2922 13.0786C17.1951 13.1757 16.9813 13.2534 16.8065 13.2534C16.1847 13.2534 15.8641 12.7094 15.8641 12.1362C15.8641 11.5825 16.1651 11.087 16.7385 11.087C16.9909 11.087 17.1756 11.2133 17.2728 11.3494ZM14.1187 11.1582C14.1148 11.2046 14.1586 11.2361 14.1974 11.2619V11.2619C14.3275 11.3415 14.3716 11.5177 14.3856 11.6027C14.3908 11.6344 14.3917 11.6665 14.3917 11.6986V12.7579C14.3917 13.2145 14.382 13.2825 14.1488 13.3116L14.0981 13.3189C14.0418 13.3269 13.9787 13.3511 13.981 13.4079V13.4079C13.9835 13.4701 14.0547 13.4846 14.1168 13.4814C14.2668 13.4737 14.4311 13.4671 14.6151 13.4671C14.8219 13.4671 14.9871 13.4754 15.1646 13.4843V13.4843C15.1929 13.4858 15.2232 13.4796 15.2346 13.4537C15.2417 13.4375 15.246 13.4178 15.2463 13.3987C15.247 13.3479 15.1916 13.3274 15.1414 13.3202L15.0814 13.3117C14.8483 13.2729 14.8386 13.2146 14.8386 12.758V11.6214C14.8386 11.4247 14.8495 11.2061 14.8591 11.0148C14.8617 10.963 14.8642 10.9131 14.8663 10.8663C14.8673 10.8453 14.8664 10.8216 14.8494 10.8092V10.8092C14.8219 10.7891 14.7848 10.8059 14.7556 10.8233C14.61 10.9103 14.3507 11.0305 14.2011 11.0876C14.1665 11.1008 14.1255 11.1148 14.1195 11.1514C14.1192 11.1536 14.1189 11.1559 14.1187 11.1582ZM14.5664 9.92125C14.7413 9.92125 14.8967 9.82413 14.8967 9.60069C14.8967 9.42581 14.7705 9.28012 14.5859 9.28012C14.4013 9.28012 14.2458 9.40639 14.2458 9.6104C14.2458 9.78528 14.3721 9.92125 14.5664 9.92125ZM11.0109 9.37738C11.1955 9.49393 11.2052 9.53278 11.2052 9.90196V12.7678C11.2052 13.2244 11.1955 13.2924 10.9623 13.3215L10.9119 13.3288C10.8554 13.3368 10.7921 13.3611 10.7945 13.4181V13.4181C10.7971 13.4801 10.8681 13.4946 10.93 13.4915C11.0868 13.4837 11.2525 13.4769 11.4384 13.4769C11.6452 13.4769 11.8187 13.4853 12.0051 13.4942V13.4942C12.0348 13.4956 12.0666 13.489 12.0781 13.4616C12.0844 13.4464 12.0883 13.4283 12.0889 13.4106C12.0904 13.3586 12.0334 13.3376 11.9818 13.3312L11.9047 13.3215C11.6715 13.2827 11.6618 13.2244 11.6618 12.7678V12.4181C11.6618 12.2238 11.6618 12.2043 11.7783 12.2043C11.8464 12.2043 11.9144 12.2335 11.9726 12.2918L12.6527 13.0787C12.7304 13.1758 12.7596 13.2147 12.7596 13.2535C12.7596 13.2924 12.7012 13.3118 12.6041 13.3215L12.534 13.3332C12.5031 13.3384 12.4717 13.3417 12.4611 13.3711V13.3711C12.4315 13.4528 12.5436 13.4938 12.6304 13.4898C12.7859 13.4827 12.9632 13.4769 13.1578 13.4769C13.3293 13.4769 13.5076 13.4838 13.6697 13.4918C13.7293 13.4947 13.7979 13.4802 13.8016 13.4206C13.8016 13.42 13.8016 13.4193 13.8017 13.4187C13.8044 13.3608 13.7401 13.3377 13.6825 13.3313V13.3313C13.5659 13.3118 13.4396 13.273 13.3521 13.1952C13.2259 13.0787 13.0024 12.8358 12.7596 12.5541C12.5858 12.3651 12.4884 12.2527 12.4034 12.1434C12.355 12.0812 12.287 12.0011 12.3356 11.9391C12.3461 11.9257 12.3608 11.9108 12.3807 11.8935C12.4162 11.8609 12.4607 11.8167 12.5123 11.7654C12.6301 11.6482 12.7849 11.4943 12.9539 11.3592C13.119 11.2232 13.2259 11.1648 13.3521 11.1357L13.473 11.1127C13.5277 11.1023 13.5847 11.0752 13.5842 11.0195V11.0195C13.5836 10.9592 13.5151 10.9451 13.4551 10.9509C13.1334 10.9819 12.8031 10.99 12.5458 10.99H12.5181C12.44 10.99 12.3424 11.0157 12.359 11.0921V11.0921C12.3691 11.1389 12.424 11.1484 12.4716 11.1544L12.5556 11.1648C12.6624 11.1746 12.6915 11.194 12.6915 11.2232C12.6915 11.2523 12.643 11.3203 12.4681 11.5146L12.2058 11.7963C12.0407 11.9712 11.9144 12.0392 11.7783 12.0392C11.6715 12.0392 11.6618 12.0198 11.6618 11.9421V9.77565C11.6618 9.51008 11.6704 9.21 11.6796 9.02184C11.6806 8.99995 11.6803 8.97434 11.663 8.96094V8.96094C11.6407 8.9437 11.61 8.95685 11.5847 8.96933C11.4209 9.05023 11.2244 9.1206 11.0744 9.17008C10.9874 9.1988 10.8667 9.2876 10.9429 9.33853V9.33853L11.0109 9.37738Z" fill="white"/>
</svg>
