<svg width="25" height="24" viewBox="0 0 25 24" fill="none" xmlns="http://www.w3.org/2000/svg">
<rect x="2" y="1.5" width="21" height="21" rx="2" fill="#612066"/>
<path d="M17.9071 10.2437C17.9071 7.34766 15.5774 5 12.7035 5C9.82971 5 7.5 7.34766 7.5 10.2437V13.5713C7.5 16.4673 9.82971 18.815 12.7035 18.815C15.5774 18.815 17.9071 16.4673 17.9071 13.5713V10.2437Z" fill="#E50695"/>
<path fill-rule="evenodd" clip-rule="evenodd" d="M10.7125 16.3442C12.1112 15.3988 12.7681 14.7081 12.8395 14.0973C12.9016 13.567 12.5282 13.1605 12.0962 12.6906C11.55 12.0963 10.9317 11.4236 10.9317 10.2782C10.9317 8.41327 14.2375 7.30166 14.271 7.29159C14.6123 7.1887 14.6644 7.26856 14.4088 7.48081C13.2215 8.46508 12.686 9.21479 12.6367 9.82779C12.5375 11.0639 15.5669 11.9748 14.1911 14.5268C13.3664 16.0564 10.871 16.5342 10.8467 16.5392C10.639 16.5838 10.4626 16.514 10.7125 16.3449V16.3442Z" fill="white"/>
</svg>
