<svg width="25" height="24" viewBox="0 0 25 24" fill="none" xmlns="http://www.w3.org/2000/svg">
<rect x="2" y="1.5" width="21" height="21" rx="2" fill="#122344"/>
<path d="M17.4028 7.45805H15.7189V7.72551H16.1657V16.0181C16.1542 16.1964 16.0855 16.2634 15.8106 16.2745H15.7189V16.5085H17.6204V16.2745H17.4256C17.1049 16.2634 16.9904 16.1408 16.9789 15.8621V12.652H17.5288C18.3306 12.652 18.8002 12.2731 18.8002 11.7715V8.41662C18.8002 7.91502 18.3993 7.45797 17.4028 7.45797V7.45805ZM17.9869 10.0216V11.805C17.9869 12.0836 17.8037 12.3511 17.4486 12.34H16.9789V7.72551H17.4028C17.7235 7.72551 17.9869 7.98192 17.9869 8.29394V10.0217V10.0216ZM7.4946 12.652H7.98707V15.8955C7.9986 16.1742 7.76948 16.4082 7.48307 16.4194H7.47163C7.18532 16.4194 6.97907 16.1853 6.97907 15.8955V8.2828C6.97907 8.07102 7.02492 7.58064 7.39148 7.59178C7.68932 7.59178 7.90691 7.85925 7.9986 8.27166C8.10163 8.69522 8.17035 9.6872 8.17035 10.1219C8.17035 10.2668 8.22763 10.3225 8.38804 10.3225H8.74307V7.45805H8.45676V7.5917C8.45676 7.73665 8.36507 7.72551 8.28492 7.68096C8.01004 7.5026 7.70076 7.38 7.403 7.38C6.91035 7.38 6.2002 7.59178 6.2002 8.50572V15.2267C6.21163 16.3971 6.84163 16.6089 7.47163 16.62C7.95276 16.62 8.18179 16.3748 8.36507 16.2856C8.49107 16.2299 8.58276 16.3747 8.58276 16.5531H8.83476V12.652H9.24707V12.3623H7.4946V12.652ZM11.6068 12.3623L12.0535 8.72863L12.5575 12.3734L11.6067 12.3623H11.6068ZM13.806 15.8621L12.7294 7.45805H11.8816L10.805 15.8844C10.7478 16.1519 10.7363 16.2187 10.3239 16.2411V16.4974H11.6527V16.2634C11.5037 16.2745 11.3548 16.2299 11.2403 16.1408C11.1944 16.085 11.1715 16.0293 11.1715 15.9624L11.5724 12.6409H12.6034L13.0272 15.9624C13.0272 16.1742 13.0043 16.2522 12.7408 16.2634H12.6148V16.4974H14.31V16.2634H14.2643C13.9321 16.2634 13.8291 16.0627 13.8061 15.8621H13.806Z" fill="white"/>
</svg>
