<svg width="25" height="24" viewBox="0 0 25 24" fill="none" xmlns="http://www.w3.org/2000/svg">
<path fill-rule="evenodd" clip-rule="evenodd" d="M2 20.5C2 21.6046 2.89543 22.5 4 22.5H21C22.1046 22.5 23 21.6046 23 20.5V3.5C23 2.39543 22.1046 1.5 21 1.5H4C2.89543 1.5 2 2.39543 2 3.5V20.5Z" fill="#757473"/>
<path fill-rule="evenodd" clip-rule="evenodd" d="M18.1546 10.5939C18.1522 9.86491 17.3824 9.40963 16.8239 9.40963C15.8054 9.40963 15.2282 10.3457 15.2282 10.9613C15.2282 11.1025 15.2401 11.1841 15.39 11.1841C15.5398 11.1841 16.6317 11.1806 17.3453 11.1783C17.6918 11.1772 17.9491 11.1764 17.9662 11.1764C18.101 11.1764 18.1566 11.1067 18.1546 10.5939ZM18.3589 11.9082L15.3465 11.9176C15.1897 11.9181 15.1339 11.9242 15.1472 12.2517C15.1475 12.2591 15.1479 12.2671 15.1482 12.2757C15.1632 12.6608 15.2261 14.2695 16.9364 14.2633C17.75 14.2604 18.273 13.9513 18.5459 13.7899C18.6154 13.7488 18.6687 13.7173 18.7064 13.7029C18.8169 13.6608 18.8775 13.8738 18.9086 14.0275C18.9449 14.2073 18.9404 14.377 18.8947 14.4303C18.6546 14.7106 17.514 15.1207 16.8318 15.1232C16.1455 15.1256 15.3087 14.8775 14.8601 14.221C14.4152 13.5642 14.2085 13.0189 14.2085 11.9493C14.2085 10.0418 15.1684 8.61914 16.8599 8.61914C17.6348 8.61914 18.8768 9.04765 18.971 10.5313C19.008 11.09 18.9431 11.3333 18.8628 11.6224C18.7886 11.8334 18.6005 11.9072 18.3589 11.9082ZM12.4819 8.81433C12.5238 8.81493 12.5711 8.8156 12.6245 8.8156C12.6565 8.8156 12.6864 8.81511 12.7141 8.81465C12.8861 8.81178 12.9757 8.81029 12.9797 8.93725C12.9817 8.99951 11.7156 14.5789 11.6609 14.8104C11.5951 15.0592 11.511 15.1403 11.1605 15.1391C10.7704 15.1377 10.706 14.9762 10.6484 14.8318C10.6455 14.8246 10.6427 14.8175 10.6398 14.8104L9.52572 10.8471C9.52025 10.831 9.51546 10.816 9.51101 10.802C9.4847 10.7195 9.47058 10.6753 9.40219 10.6753C9.33384 10.6753 9.31973 10.7195 9.29342 10.802C9.28897 10.8159 9.28417 10.831 9.27871 10.8471L8.1646 14.8104C8.16173 14.8175 8.15888 14.8246 8.15602 14.8318C8.09847 14.9762 8.03409 15.1377 7.64391 15.1391C7.29337 15.1403 7.20937 15.0592 7.14353 14.8104C7.08883 14.5789 5.79129 9.04487 5.79008 8.96565C5.78751 8.79382 5.88101 8.7778 6.18441 8.7778C6.24227 8.7778 6.29215 8.77635 6.33534 8.77508C6.52138 8.76965 6.58347 8.76783 6.62578 8.9017L7.54521 13.2693C7.54724 13.2771 7.54926 13.285 7.55128 13.2927C7.58262 13.4139 7.61218 13.5282 7.67483 13.5282C7.74943 13.5282 7.78335 13.4915 7.81537 13.3804L9.00219 8.97967C9.03726 8.83629 9.1032 8.80542 9.40219 8.80542C9.70117 8.80542 9.75472 8.85246 9.7858 8.97967L11.0085 13.3797C11.0332 13.4927 11.0644 13.5282 11.139 13.5282C11.1942 13.5282 11.2207 13.4899 11.2473 13.4033C11.2596 13.3632 11.2679 13.324 11.2759 13.2829C11.3782 12.7587 12.119 8.96522 12.1376 8.92339C12.1882 8.81011 12.2599 8.81114 12.4819 8.81433Z" fill="white"/>
</svg>
