<svg width="33" height="32" viewBox="0 0 33 32" fill="none" xmlns="http://www.w3.org/2000/svg">
<path fill-rule="evenodd" clip-rule="evenodd" d="M2.5 28C2.5 29.1046 3.39543 30 4.5 30H28.5C29.6046 30 30.5 29.1046 30.5 28V4C30.5 2.89543 29.6046 2 28.5 2H4.5C3.39543 2 2.5 2.89543 2.5 4V28Z" fill="#2A2A2A"/>
<path fill-rule="evenodd" clip-rule="evenodd" d="M26.2413 17.376C26.135 17.1024 25.983 16.8441 25.7703 16.601C25.5727 16.4034 25.3448 16.2211 25.0864 16.0539C24.8281 15.8868 24.5546 15.75 24.2658 15.6284C23.9467 15.4916 23.6276 15.3701 23.2932 15.2485C22.9589 15.1269 22.6246 14.9901 22.2751 14.823C21.8952 14.6406 21.5913 14.4127 21.3937 14.1239C21.1961 13.8352 21.0898 13.4857 21.0898 13.045C21.0898 12.6347 21.2418 12.2852 21.5609 11.9964C21.8648 11.7078 22.2447 11.571 22.7006 11.571C23.1261 11.571 23.4908 11.6469 23.7795 11.8141C24.0683 11.9812 24.3266 12.194 24.5241 12.4675C24.7217 12.7411 24.8888 13.0602 25.0256 13.4097C25.1473 13.7592 25.2688 14.1239 25.3751 14.5039H25.9526L25.8918 11.1758H25.3295L25.0408 11.6621C24.7369 11.4646 24.4026 11.2974 24.0378 11.1606C23.6732 11.0239 23.2477 10.9479 22.7918 10.9479C22.3814 10.9479 22.0015 11.0239 21.6216 11.1606C21.2418 11.2974 20.9226 11.495 20.6491 11.7381C20.3603 11.9964 20.1324 12.2852 19.9804 12.6195C19.8285 12.9386 19.7525 13.3033 19.7525 13.6832C19.7525 14.3367 19.9045 14.8838 20.2236 15.2941C20.5427 15.7043 20.9834 16.0387 21.5456 16.297C21.8344 16.4338 22.184 16.5706 22.579 16.7226C22.9741 16.8745 23.3236 17.0112 23.6276 17.1328C24.0835 17.3152 24.4178 17.5735 24.6458 17.9231C24.8736 18.2726 24.98 18.6525 24.98 19.0476C24.98 19.3211 24.9497 19.5643 24.8736 19.777C24.7977 19.9897 24.6914 20.1722 24.5394 20.3241C24.3874 20.476 24.1898 20.5976 23.9467 20.6888C23.7036 20.7648 23.4148 20.8103 23.0957 20.8103C22.6702 20.8103 22.2903 20.7344 21.956 20.5672C21.6216 20.4 21.3329 20.1722 21.0898 19.8985C20.8314 19.6098 20.6187 19.2907 20.4667 18.9412C20.3147 18.5917 20.178 18.2118 20.0564 17.7863H19.4789L19.5853 21.2207H20.1476L20.4515 20.7039C20.7707 20.9016 21.1505 21.0687 21.6065 21.2054C22.0624 21.3422 22.503 21.4182 22.9589 21.4182C23.9315 21.4182 24.7521 21.1295 25.4056 20.552C26.059 19.9897 26.3933 19.2451 26.3933 18.3638C26.3933 17.9838 26.3477 17.6495 26.2413 17.376ZM19.031 11.8292C19.183 11.7837 19.3197 11.7533 19.4413 11.7533H19.4564V11.2518H15.8093V11.7533C16.2956 11.7837 16.6603 11.8597 16.8731 11.9661C17.101 12.0876 17.2073 12.2092 17.2073 12.3764C17.2073 12.4827 17.1922 12.6195 17.1618 12.7866C17.1388 12.9016 17.0897 13.1036 17.0211 13.386C16.999 13.4768 16.9749 13.576 16.9491 13.6833C16.8303 14.1703 16.6744 14.7315 16.4958 15.3743C16.4459 15.5539 16.3943 15.7398 16.3412 15.9323C16.2006 16.433 16.0398 16.9896 15.8645 17.5962C15.7365 18.039 15.6009 18.5083 15.4598 19.002L12.922 11.3734H12.2229L9.7156 18.85C9.39508 17.7283 9.12153 16.7735 8.89492 15.9825C8.7347 15.4233 8.59795 14.946 8.48465 14.5494C8.21109 13.592 8.01355 12.893 7.90722 12.4827C7.90722 12.4468 7.89774 12.4014 7.88629 12.3466C7.88321 12.3319 7.87999 12.3164 7.87677 12.3003C7.86158 12.2244 7.86158 12.1636 7.86158 12.118C7.86158 11.9965 7.98317 11.9053 8.24147 11.8597C8.48465 11.8141 8.78859 11.7685 9.15329 11.7533V11.2518H5.06543V11.7533C5.07846 11.7549 5.09183 11.7565 5.10552 11.7582C5.21958 11.7721 5.35527 11.7886 5.49096 11.8292C5.64293 11.8749 5.77971 11.9356 5.90123 12.0117C6.03801 12.1028 6.1596 12.2092 6.23562 12.3156C6.31157 12.4372 6.37233 12.5587 6.41797 12.7107C6.58513 13.3186 6.91945 14.5039 7.42093 16.2818C7.68222 17.2003 7.93938 18.1064 8.19242 18.998C8.42503 19.8176 8.65416 20.6249 8.8798 21.4183H9.5028L12.1318 13.6833L14.6848 21.4183H15.3382C15.8549 19.777 16.3412 18.227 16.7819 16.7681C17.0243 15.974 17.253 15.2304 17.4653 14.5399C17.6389 13.9752 17.8016 13.4461 17.952 12.9538C18.028 12.7107 18.104 12.5283 18.2104 12.3915C18.3015 12.2548 18.4383 12.1332 18.6055 12.0268C18.727 11.9508 18.879 11.8749 19.031 11.8292Z" fill="white"/>
</svg>
