<svg width="36" height="36" viewBox="0 0 36 36" fill="none" xmlns="http://www.w3.org/2000/svg">
<rect x="2" y="2" width="31.5" height="31.5" rx="2.66667" fill="#0F4DBC"/>
<path d="M26.3197 9.18673C21.6781 6.79388 17.0935 6.53917 14.2431 7.39544C8.97317 8.9756 7.33771 15.6732 12.2223 18.9576C12.5172 19.157 12.3312 19.5742 11.9609 20.2411C11.5034 21.0722 10.6539 22.7043 9.15414 23.8823C8.25263 24.5928 7.66447 24.8861 8.40846 25.7641C8.40846 25.7641 10.059 27.6141 11.2806 28.1503C12.7501 28.7954 13.1188 28.6865 14.213 27.6627C14.9017 27.0175 16.2657 25.2581 17.9112 22.4513C18.7658 20.9935 19.9069 20.9667 19.7527 23.3662C19.7527 23.3662 19.5282 25.6753 19.4645 26.1529C19.2819 27.5286 19.4243 28.0045 20.6576 28.0162C20.6576 28.0162 23.3052 27.8704 24.2234 27.7414C25.517 27.5655 25.4467 27.356 25.7851 26.3355C27.5932 20.8913 27.7457 11.5477 27.7457 11.5477C27.8244 10.2927 27.429 9.75813 26.3197 9.18673ZM22.9315 14.2238C22.9315 14.2238 21.2877 15.3515 21.2474 15.3817C21.1067 15.4889 20.9157 15.6179 20.8888 16.1391C20.8788 16.3569 20.8151 17.8918 20.8118 18.0862C20.8084 18.2973 20.7162 18.8754 20.0477 18.289C20.0477 18.289 18.9283 17.3087 18.7624 17.1629C18.7239 17.1294 18.3401 16.6937 17.7419 16.9518L15.9892 17.6522C15.9892 17.6522 14.9352 18.0829 15.3256 17.1361C15.706 16.2128 15.9624 15.4487 16.0478 15.2024C16.135 14.9443 16.1048 14.5807 15.8903 14.3277C15.7931 14.2121 14.9503 13.0994 14.7592 12.8246C14.7592 12.8246 14.0672 12.0035 15.2201 12.0588C15.2201 12.0588 17.1873 12.1041 17.2191 12.1057C17.2526 12.1091 17.6213 12.1342 17.8827 11.7203C18.2061 11.2109 19.1579 10.0195 18.9601 10.2726C19.126 10.0614 19.5114 9.54197 19.7661 10.4049C19.7661 10.4049 20.1281 11.541 20.3007 12.0186C20.418 12.3437 20.4917 12.5599 21.0765 12.7492L22.8846 13.4027C22.8846 13.4027 23.7291 13.6641 22.9315 14.2238Z" fill="white"/>
</svg>
